<svg xmlns="http://www.w3.org/2000/svg" version="1.1" xmlns:xlink="http://www.w3.org/1999/xlink" xmlns:svgjs="http://svgjs.dev/svgjs" width="1000" height="1000" viewBox="0 0 1000 1000"><rect width="1000" height="1000" fill="#ea3c12"></rect><g transform="matrix(0.7,0,0,0.7,149.57575757575756,282.1265587044535)"><svg viewBox="0 0 396 247" data-background-color="#ea3c12" preserveAspectRatio="xMidYMid meet" height="623" width="1000" xmlns="http://www.w3.org/2000/svg" xmlns:xlink="http://www.w3.org/1999/xlink"><g id="tight-bounds" transform="matrix(1,0,0,1,0.2400000000000091,-0.09999999999999432)"><svg viewBox="0 0 395.52 247.2" height="247.2" width="395.52"><g><svg></svg></g><g><svg viewBox="0 0 395.52 247.2" height="247.2" width="395.52"><mask id="c662777f-33af-4fc7-969b-31b3298d98a2"><rect width="395.52" height="247.2" fill="white"></rect><g transform="matrix(1,0,0,1,127.85356608478803,37.08)" id="clone"><svg viewBox="0 0 139.81286783042393 173.04" height="173.04" width="139.81286783042393"><g><svg viewBox="0 0 139.81286783042393 173.04" height="173.04" width="139.81286783042393"><g><svg viewBox="0 0 139.81286783042395 173.04000000000002" height="173.04" width="139.81286783042393"><g><svg viewBox="0 0 139.81286783042395 173.04000000000002" height="173.04000000000002" width="139.81286783042395"><g id="SvgjsG1062"><svg viewBox="0 0 139.81286783042395 173.04000000000002" height="173.04000000000002" width="139.81286783042395" id="SvgjsSvg1061"><g><svg viewBox="0 0 139.81286783042395 173.04000000000002" height="173.04000000000002" width="139.81286783042395"><g transform="matrix(1,0,0,1,0,0)"><svg width="139.81286783042395" viewBox="-0.5 -38.04999923706055 33.39999961853027 41.099998474121094" height="173.04000000000002" data-palette-color="#ffbe79"><path d="M29.9-34.05L29.9-1.1Q29.9-0.05 25.2-0.05 20.5-0.05 20.1-0.8L20.1-0.8 11.75-16.4 11.75-0.85Q11.75 0.05 7.13 0.05 2.5 0.05 2.5-0.85L2.5-0.85 2.5-34.3Q2.5-35.05 6.45-35.05L6.45-35.05Q8-35.05 10.08-34.77 12.15-34.5 12.6-33.75L12.6-33.75 20.6-18.35 20.6-34.05Q20.6-35 25.25-35 29.9-35 29.9-34.05L29.9-34.05Z" opacity="1" transform="matrix(1,0,0,1,0,0)" fill="black" class="wordmark-text-0" id="SvgjsPath1060" stroke-width="5" stroke="black" stroke-linejoin="round"></path></svg></g></svg></g></svg></g></svg></g><g></g></svg></g></svg></g></svg></g></mask><g mask="url(#c662777f-33af-4fc7-969b-31b3298d98a2)"><g><path xmlns="http://www.w3.org/2000/svg" d="M267.392 39.482v167.474c0 3.558-7.963 5.337-23.888 5.336-15.926 0-24.566-1.271-25.922-3.812v0l-42.44-79.289v79.035c0 3.05-7.827 4.574-23.482 4.575-15.688 0-23.533-1.525-23.532-4.575v0-170.015c0-2.541 6.692-3.812 20.076-3.812v0c5.252 0 11.402 0.474 18.45 1.423 7.014 0.915 11.284 2.643 12.808 5.185v0l40.662 78.273v-79.798c0-3.219 7.878-4.829 23.634-4.829 15.756 0 23.634 1.61 23.634 4.829z" fill="#ffbe79" fill-rule="nonzero" stroke="none" stroke-width="1" stroke-linecap="butt" stroke-linejoin="miter" stroke-miterlimit="10" stroke-dasharray="" stroke-dashoffset="0" font-family="none" font-weight="none" font-size="none" text-anchor="none" style="mix-blend-mode: normal" data-fill-palette-color="tertiary"></path></g></g><g transform="matrix(1,0,0,1,127.85356608478803,37.08)"><svg viewBox="0 0 139.81286783042393 173.04" height="173.04" width="139.81286783042393"><g><svg viewBox="0 0 139.81286783042393 173.04" height="173.04" width="139.81286783042393"><g><svg viewBox="0 0 139.81286783042395 173.04000000000002" height="173.04" width="139.81286783042393"><g><svg viewBox="0 0 139.81286783042395 173.04000000000002" height="173.04000000000002" width="139.81286783042395"><g id="textblocktransform"><svg viewBox="0 0 139.81286783042395 173.04000000000002" height="173.04000000000002" width="139.81286783042395" id="textblock"><g><svg viewBox="0 0 139.81286783042395 173.04000000000002" height="173.04000000000002" width="139.81286783042395"><g transform="matrix(1,0,0,1,0,0)"><svg width="139.81286783042395" viewBox="-0.5 -38.04999923706055 33.39999961853027 41.099998474121094" height="173.04000000000002" data-palette-color="#ffbe79"><path d="M29.9-34.05L29.9-1.1Q29.9-0.05 25.2-0.05 20.5-0.05 20.1-0.8L20.1-0.8 11.75-16.4 11.75-0.85Q11.75 0.05 7.13 0.05 2.5 0.05 2.5-0.85L2.5-0.85 2.5-34.3Q2.5-35.05 6.45-35.05L6.45-35.05Q8-35.05 10.08-34.77 12.15-34.5 12.6-33.75L12.6-33.75 20.6-18.35 20.6-34.05Q20.6-35 25.25-35 29.9-35 29.9-34.05L29.9-34.05Z" opacity="1" transform="matrix(1,0,0,1,0,0)" fill="#ffbe79" class="wordmark-text-0" data-fill-palette-color="primary" id="text-0"></path></svg></g></svg></g></svg></g></svg></g><g></g></svg></g></svg></g></svg></g></svg></g><defs></defs></svg><rect width="395.52" height="247.2" fill="none" stroke="none" visibility="hidden"></rect></g></svg></g></svg>